<mxfile host="65bd71144e">
    <diagram id="C5RBs43oDa-KdzZeNtuy" name="Page-1">
        <mxGraphModel dx="1363" dy="-305" grid="1" gridSize="10" guides="1" tooltips="1" connect="1" arrows="1" fold="1" page="1" pageScale="1" pageWidth="1654" pageHeight="1169" math="0" shadow="0">
            <root>
                <mxCell id="WIyWlLk6GJQsqaUBKTNV-0"/>
                <mxCell id="WIyWlLk6GJQsqaUBKTNV-1" parent="WIyWlLk6GJQsqaUBKTNV-0"/>
                <mxCell id="j8qvGGo2d-hSAxMMAu1f-89" value="Organisation" style="swimlane;fontStyle=2;align=center;verticalAlign=top;childLayout=stackLayout;horizontal=1;startSize=40;horizontalStack=0;resizeParent=1;resizeLast=0;collapsible=1;marginBottom=0;rounded=0;shadow=0;strokeWidth=1;" parent="WIyWlLk6GJQsqaUBKTNV-1" vertex="1">
                    <mxGeometry x="190" y="1935" width="110" height="120" as="geometry">
                        <mxRectangle x="230" y="140" width="160" height="26" as="alternateBounds"/>
                    </mxGeometry>
                </mxCell>
                <mxCell id="j8qvGGo2d-hSAxMMAu1f-90" value="name" style="text;align=left;verticalAlign=top;spacingLeft=4;spacingRight=4;overflow=hidden;rotatable=0;points=[[0,0.5],[1,0.5]];portConstraint=eastwest;" parent="j8qvGGo2d-hSAxMMAu1f-89" vertex="1">
                    <mxGeometry y="40" width="110" height="26" as="geometry"/>
                </mxCell>
                <mxCell id="j8qvGGo2d-hSAxMMAu1f-91" value="type" style="text;align=left;verticalAlign=top;spacingLeft=4;spacingRight=4;overflow=hidden;rotatable=0;points=[[0,0.5],[1,0.5]];portConstraint=eastwest;rounded=0;shadow=0;html=0;" parent="j8qvGGo2d-hSAxMMAu1f-89" vertex="1">
                    <mxGeometry y="66" width="110" height="26" as="geometry"/>
                </mxCell>
                <mxCell id="j8qvGGo2d-hSAxMMAu1f-92" value="definition" style="text;align=left;verticalAlign=top;spacingLeft=4;spacingRight=4;overflow=hidden;rotatable=0;points=[[0,0.5],[1,0.5]];portConstraint=eastwest;rounded=0;shadow=0;html=0;" parent="j8qvGGo2d-hSAxMMAu1f-89" vertex="1">
                    <mxGeometry y="92" width="110" height="26" as="geometry"/>
                </mxCell>
                <mxCell id="j8qvGGo2d-hSAxMMAu1f-93" style="edgeStyle=none;html=1;exitX=1.004;exitY=0.438;exitDx=0;exitDy=0;startArrow=none;exitPerimeter=0;" parent="WIyWlLk6GJQsqaUBKTNV-1" source="j8qvGGo2d-hSAxMMAu1f-117" edge="1">
                    <mxGeometry relative="1" as="geometry">
                        <mxPoint x="1180" y="1759.7142857142862" as="targetPoint"/>
                    </mxGeometry>
                </mxCell>
                <mxCell id="j8qvGGo2d-hSAxMMAu1f-94" style="edgeStyle=none;html=1;exitX=0;exitY=0.25;exitDx=0;exitDy=0;" parent="WIyWlLk6GJQsqaUBKTNV-1" source="j8qvGGo2d-hSAxMMAu1f-96" edge="1">
                    <mxGeometry relative="1" as="geometry">
                        <mxPoint x="740" y="1590" as="targetPoint"/>
                    </mxGeometry>
                </mxCell>
                <mxCell id="j8qvGGo2d-hSAxMMAu1f-95" style="edgeStyle=none;html=1;exitX=0.25;exitY=0;exitDx=0;exitDy=0;" parent="WIyWlLk6GJQsqaUBKTNV-1" source="j8qvGGo2d-hSAxMMAu1f-96" edge="1">
                    <mxGeometry relative="1" as="geometry">
                        <mxPoint x="1400" y="1380" as="targetPoint"/>
                        <Array as="points">
                            <mxPoint x="920" y="1390"/>
                        </Array>
                    </mxGeometry>
                </mxCell>
                <mxCell id="j8qvGGo2d-hSAxMMAu1f-96" value="Person" style="swimlane;fontStyle=2;align=center;verticalAlign=top;childLayout=stackLayout;horizontal=1;startSize=40;horizontalStack=0;resizeParent=1;resizeLast=0;collapsible=1;marginBottom=0;rounded=0;shadow=0;strokeWidth=1;" parent="WIyWlLk6GJQsqaUBKTNV-1" vertex="1">
                    <mxGeometry x="840" y="1730" width="110" height="150" as="geometry">
                        <mxRectangle x="230" y="140" width="160" height="26" as="alternateBounds"/>
                    </mxGeometry>
                </mxCell>
                <mxCell id="j8qvGGo2d-hSAxMMAu1f-97" value="name" style="text;align=left;verticalAlign=top;spacingLeft=4;spacingRight=4;overflow=hidden;rotatable=0;points=[[0,0.5],[1,0.5]];portConstraint=eastwest;" parent="j8qvGGo2d-hSAxMMAu1f-96" vertex="1">
                    <mxGeometry y="40" width="110" height="26" as="geometry"/>
                </mxCell>
                <mxCell id="j8qvGGo2d-hSAxMMAu1f-98" value="gender" style="text;align=left;verticalAlign=top;spacingLeft=4;spacingRight=4;overflow=hidden;rotatable=0;points=[[0,0.5],[1,0.5]];portConstraint=eastwest;rounded=0;shadow=0;html=0;" parent="j8qvGGo2d-hSAxMMAu1f-96" vertex="1">
                    <mxGeometry y="66" width="110" height="26" as="geometry"/>
                </mxCell>
                <mxCell id="j8qvGGo2d-hSAxMMAu1f-99" value="origin" style="text;align=left;verticalAlign=top;spacingLeft=4;spacingRight=4;overflow=hidden;rotatable=0;points=[[0,0.5],[1,0.5]];portConstraint=eastwest;rounded=0;shadow=0;html=0;" parent="j8qvGGo2d-hSAxMMAu1f-96" vertex="1">
                    <mxGeometry y="92" width="110" height="26" as="geometry"/>
                </mxCell>
                <mxCell id="0" value="Death_date" style="text;html=1;align=left;verticalAlign=middle;resizable=0;points=[];autosize=1;strokeColor=none;fillColor=none;" vertex="1" parent="j8qvGGo2d-hSAxMMAu1f-96">
                    <mxGeometry y="118" width="110" height="30" as="geometry"/>
                </mxCell>
                <mxCell id="j8qvGGo2d-hSAxMMAu1f-100" style="edgeStyle=none;html=1;exitX=0.25;exitY=1;exitDx=0;exitDy=0;" parent="WIyWlLk6GJQsqaUBKTNV-1" source="j8qvGGo2d-hSAxMMAu1f-101" edge="1">
                    <mxGeometry relative="1" as="geometry">
                        <mxPoint x="840" y="2020" as="targetPoint"/>
                        <Array as="points">
                            <mxPoint x="1140" y="1890"/>
                        </Array>
                    </mxGeometry>
                </mxCell>
                <mxCell id="j8qvGGo2d-hSAxMMAu1f-101" value="Birth" style="swimlane;fontStyle=2;align=center;verticalAlign=top;childLayout=stackLayout;horizontal=1;startSize=40;horizontalStack=0;resizeParent=1;resizeLast=0;collapsible=1;marginBottom=0;rounded=0;shadow=0;strokeWidth=1;" parent="WIyWlLk6GJQsqaUBKTNV-1" vertex="1">
                    <mxGeometry x="1190" y="1730" width="110" height="150" as="geometry">
                        <mxRectangle x="230" y="140" width="160" height="26" as="alternateBounds"/>
                    </mxGeometry>
                </mxCell>
                <mxCell id="j8qvGGo2d-hSAxMMAu1f-102" value="date" style="text;align=left;verticalAlign=top;spacingLeft=4;spacingRight=4;overflow=hidden;rotatable=0;points=[[0,0.5],[1,0.5]];portConstraint=eastwest;" parent="j8qvGGo2d-hSAxMMAu1f-101" vertex="1">
                    <mxGeometry y="40" width="110" height="26" as="geometry"/>
                </mxCell>
                <mxCell id="j8qvGGo2d-hSAxMMAu1f-103" value="fk_geo_place" style="text;align=left;verticalAlign=top;spacingLeft=4;spacingRight=4;overflow=hidden;rotatable=0;points=[[0,0.5],[1,0.5]];portConstraint=eastwest;rounded=0;shadow=0;html=0;" parent="j8qvGGo2d-hSAxMMAu1f-101" vertex="1">
                    <mxGeometry y="66" width="110" height="26" as="geometry"/>
                </mxCell>
                <mxCell id="4" value="fk_person" style="text;align=left;verticalAlign=top;spacingLeft=4;spacingRight=4;overflow=hidden;rotatable=0;points=[[0,0.5],[1,0.5]];portConstraint=eastwest;rounded=0;shadow=0;html=0;" vertex="1" parent="j8qvGGo2d-hSAxMMAu1f-101">
                    <mxGeometry y="92" width="110" height="26" as="geometry"/>
                </mxCell>
                <mxCell id="j8qvGGo2d-hSAxMMAu1f-104" value="1" style="text;html=1;align=center;verticalAlign=middle;resizable=0;points=[];autosize=1;strokeColor=none;fillColor=none;" parent="WIyWlLk6GJQsqaUBKTNV-1" vertex="1">
                    <mxGeometry x="945" y="1735" width="30" height="30" as="geometry"/>
                </mxCell>
                <mxCell id="j8qvGGo2d-hSAxMMAu1f-105" value="0..1" style="text;html=1;align=center;verticalAlign=middle;resizable=0;points=[];autosize=1;strokeColor=none;fillColor=none;" parent="WIyWlLk6GJQsqaUBKTNV-1" vertex="1">
                    <mxGeometry x="1150" y="1730" width="40" height="30" as="geometry"/>
                </mxCell>
                <mxCell id="j8qvGGo2d-hSAxMMAu1f-106" style="edgeStyle=none;html=1;exitX=0.204;exitY=1.072;exitDx=0;exitDy=0;entryX=0.019;entryY=0.732;entryDx=0;entryDy=0;entryPerimeter=0;startArrow=none;exitPerimeter=0;" parent="WIyWlLk6GJQsqaUBKTNV-1" source="j8qvGGo2d-hSAxMMAu1f-115" target="j8qvGGo2d-hSAxMMAu1f-113" edge="1">
                    <mxGeometry relative="1" as="geometry"/>
                </mxCell>
                <mxCell id="j8qvGGo2d-hSAxMMAu1f-107" value="Relationship" style="swimlane;fontStyle=2;align=center;verticalAlign=top;childLayout=stackLayout;horizontal=1;startSize=40;horizontalStack=0;resizeParent=1;resizeLast=0;collapsible=1;marginBottom=0;rounded=0;shadow=0;strokeWidth=1;" parent="WIyWlLk6GJQsqaUBKTNV-1" vertex="1">
                    <mxGeometry x="1120" y="1540" width="110" height="144" as="geometry">
                        <mxRectangle x="230" y="140" width="160" height="26" as="alternateBounds"/>
                    </mxGeometry>
                </mxCell>
                <mxCell id="j8qvGGo2d-hSAxMMAu1f-108" value="type" style="text;align=left;verticalAlign=top;spacingLeft=4;spacingRight=4;overflow=hidden;rotatable=0;points=[[0,0.5],[1,0.5]];portConstraint=eastwest;" parent="j8qvGGo2d-hSAxMMAu1f-107" vertex="1">
                    <mxGeometry y="40" width="110" height="26" as="geometry"/>
                </mxCell>
                <mxCell id="j8qvGGo2d-hSAxMMAu1f-109" value="note" style="text;align=left;verticalAlign=top;spacingLeft=4;spacingRight=4;overflow=hidden;rotatable=0;points=[[0,0.5],[1,0.5]];portConstraint=eastwest;rounded=0;shadow=0;html=0;" parent="j8qvGGo2d-hSAxMMAu1f-107" vertex="1">
                    <mxGeometry y="66" width="110" height="26" as="geometry"/>
                </mxCell>
                <mxCell id="j8qvGGo2d-hSAxMMAu1f-110" value="fk_person1" style="text;align=left;verticalAlign=top;spacingLeft=4;spacingRight=4;overflow=hidden;rotatable=0;points=[[0,0.5],[1,0.5]];portConstraint=eastwest;rounded=0;shadow=0;html=0;" parent="j8qvGGo2d-hSAxMMAu1f-107" vertex="1">
                    <mxGeometry y="92" width="110" height="26" as="geometry"/>
                </mxCell>
                <mxCell id="j8qvGGo2d-hSAxMMAu1f-111" value="fk_person2" style="text;align=left;verticalAlign=top;spacingLeft=4;spacingRight=4;overflow=hidden;rotatable=0;points=[[0,0.5],[1,0.5]];portConstraint=eastwest;rounded=0;shadow=0;html=0;" parent="j8qvGGo2d-hSAxMMAu1f-107" vertex="1">
                    <mxGeometry y="118" width="110" height="26" as="geometry"/>
                </mxCell>
                <mxCell id="j8qvGGo2d-hSAxMMAu1f-112" value="1" style="text;html=1;align=center;verticalAlign=middle;resizable=0;points=[];autosize=1;strokeColor=none;fillColor=none;" parent="WIyWlLk6GJQsqaUBKTNV-1" vertex="1">
                    <mxGeometry x="1090" y="1550" width="30" height="30" as="geometry"/>
                </mxCell>
                <mxCell id="j8qvGGo2d-hSAxMMAu1f-113" value="2" style="text;html=1;align=center;verticalAlign=middle;resizable=0;points=[];autosize=1;strokeColor=none;fillColor=none;" parent="WIyWlLk6GJQsqaUBKTNV-1" vertex="1">
                    <mxGeometry x="925" y="1705" width="30" height="30" as="geometry"/>
                </mxCell>
                <mxCell id="j8qvGGo2d-hSAxMMAu1f-114" value="" style="edgeStyle=none;html=1;exitX=0;exitY=0.25;exitDx=0;exitDy=0;entryX=0.59;entryY=-0.062;entryDx=0;entryDy=0;entryPerimeter=0;endArrow=none;" parent="WIyWlLk6GJQsqaUBKTNV-1" source="j8qvGGo2d-hSAxMMAu1f-107" target="j8qvGGo2d-hSAxMMAu1f-115" edge="1">
                    <mxGeometry relative="1" as="geometry">
                        <mxPoint x="1120" y="1576" as="sourcePoint"/>
                        <mxPoint x="879.27" y="1726.76" as="targetPoint"/>
                    </mxGeometry>
                </mxCell>
                <mxCell id="j8qvGGo2d-hSAxMMAu1f-115" value="is composed of" style="text;html=1;align=center;verticalAlign=middle;resizable=0;points=[];autosize=1;strokeColor=none;fillColor=none;rotation=0;" parent="WIyWlLk6GJQsqaUBKTNV-1" vertex="1">
                    <mxGeometry x="940" y="1630" width="100" height="30" as="geometry"/>
                </mxCell>
                <mxCell id="j8qvGGo2d-hSAxMMAu1f-116" value="" style="edgeStyle=none;html=1;exitX=1;exitY=0.25;exitDx=0;exitDy=0;endArrow=none;" parent="WIyWlLk6GJQsqaUBKTNV-1" source="j8qvGGo2d-hSAxMMAu1f-96" target="j8qvGGo2d-hSAxMMAu1f-117" edge="1">
                    <mxGeometry relative="1" as="geometry">
                        <mxPoint x="1180" y="1759.7142857142858" as="targetPoint"/>
                        <mxPoint x="950.0000000000002" y="1760" as="sourcePoint"/>
                    </mxGeometry>
                </mxCell>
                <mxCell id="j8qvGGo2d-hSAxMMAu1f-117" value="birth of" style="text;html=1;align=center;verticalAlign=middle;resizable=0;points=[];autosize=1;strokeColor=none;fillColor=none;" parent="WIyWlLk6GJQsqaUBKTNV-1" vertex="1">
                    <mxGeometry x="1030" y="1750" width="60" height="30" as="geometry"/>
                </mxCell>
                <mxCell id="5" style="edgeStyle=none;html=1;exitX=0;exitY=0.25;exitDx=0;exitDy=0;" edge="1" parent="WIyWlLk6GJQsqaUBKTNV-1" source="j8qvGGo2d-hSAxMMAu1f-118">
                    <mxGeometry relative="1" as="geometry">
                        <mxPoint x="159.99999999999977" y="1400" as="targetPoint"/>
                        <Array as="points">
                            <mxPoint x="500" y="1320"/>
                        </Array>
                    </mxGeometry>
                </mxCell>
                <mxCell id="j8qvGGo2d-hSAxMMAu1f-118" value="Reward" style="swimlane;fontStyle=2;align=center;verticalAlign=top;childLayout=stackLayout;horizontal=1;startSize=40;horizontalStack=0;resizeParent=1;resizeLast=0;collapsible=1;marginBottom=0;rounded=0;shadow=0;strokeWidth=1;" parent="WIyWlLk6GJQsqaUBKTNV-1" vertex="1">
                    <mxGeometry x="680" y="1460" width="110" height="120" as="geometry">
                        <mxRectangle x="230" y="140" width="160" height="26" as="alternateBounds"/>
                    </mxGeometry>
                </mxCell>
                <mxCell id="j8qvGGo2d-hSAxMMAu1f-119" value="name" style="text;align=left;verticalAlign=top;spacingLeft=4;spacingRight=4;overflow=hidden;rotatable=0;points=[[0,0.5],[1,0.5]];portConstraint=eastwest;" parent="j8qvGGo2d-hSAxMMAu1f-118" vertex="1">
                    <mxGeometry y="40" width="110" height="26" as="geometry"/>
                </mxCell>
                <mxCell id="j8qvGGo2d-hSAxMMAu1f-120" value="date_receive" style="text;align=left;verticalAlign=top;spacingLeft=4;spacingRight=4;overflow=hidden;rotatable=0;points=[[0,0.5],[1,0.5]];portConstraint=eastwest;rounded=0;shadow=0;html=0;" parent="j8qvGGo2d-hSAxMMAu1f-118" vertex="1">
                    <mxGeometry y="66" width="110" height="26" as="geometry"/>
                </mxCell>
                <mxCell id="j8qvGGo2d-hSAxMMAu1f-121" value="type" style="text;align=left;verticalAlign=top;spacingLeft=4;spacingRight=4;overflow=hidden;rotatable=0;points=[[0,0.5],[1,0.5]];portConstraint=eastwest;rounded=0;shadow=0;html=0;" parent="j8qvGGo2d-hSAxMMAu1f-118" vertex="1">
                    <mxGeometry y="92" width="110" height="26" as="geometry"/>
                </mxCell>
                <mxCell id="j8qvGGo2d-hSAxMMAu1f-122" style="edgeStyle=none;html=1;exitX=0.246;exitY=1.047;exitDx=0;exitDy=0;exitPerimeter=0;entryX=1;entryY=0.5;entryDx=0;entryDy=0;" parent="WIyWlLk6GJQsqaUBKTNV-1" source="j8qvGGo2d-hSAxMMAu1f-126" target="j8qvGGo2d-hSAxMMAu1f-135" edge="1">
                    <mxGeometry relative="1" as="geometry">
                        <mxPoint x="890" y="2109" as="targetPoint"/>
                        <Array as="points">
                            <mxPoint x="1410" y="2090"/>
                        </Array>
                    </mxGeometry>
                </mxCell>
                <mxCell id="j8qvGGo2d-hSAxMMAu1f-123" value="Formation" style="swimlane;fontStyle=2;align=center;verticalAlign=top;childLayout=stackLayout;horizontal=1;startSize=40;horizontalStack=0;resizeParent=1;resizeLast=0;collapsible=1;marginBottom=0;rounded=0;shadow=0;strokeWidth=1;" parent="WIyWlLk6GJQsqaUBKTNV-1" vertex="1">
                    <mxGeometry x="1410" y="1330" width="110" height="120" as="geometry">
                        <mxRectangle x="230" y="140" width="160" height="26" as="alternateBounds"/>
                    </mxGeometry>
                </mxCell>
                <mxCell id="j8qvGGo2d-hSAxMMAu1f-124" value="name" style="text;align=left;verticalAlign=top;spacingLeft=4;spacingRight=4;overflow=hidden;rotatable=0;points=[[0,0.5],[1,0.5]];portConstraint=eastwest;" parent="j8qvGGo2d-hSAxMMAu1f-123" vertex="1">
                    <mxGeometry y="40" width="110" height="26" as="geometry"/>
                </mxCell>
                <mxCell id="j8qvGGo2d-hSAxMMAu1f-125" value="type" style="text;align=left;verticalAlign=top;spacingLeft=4;spacingRight=4;overflow=hidden;rotatable=0;points=[[0,0.5],[1,0.5]];portConstraint=eastwest;rounded=0;shadow=0;html=0;" parent="j8qvGGo2d-hSAxMMAu1f-123" vertex="1">
                    <mxGeometry y="66" width="110" height="26" as="geometry"/>
                </mxCell>
                <mxCell id="j8qvGGo2d-hSAxMMAu1f-126" value="note" style="text;align=left;verticalAlign=top;spacingLeft=4;spacingRight=4;overflow=hidden;rotatable=0;points=[[0,0.5],[1,0.5]];portConstraint=eastwest;rounded=0;shadow=0;html=0;" parent="j8qvGGo2d-hSAxMMAu1f-123" vertex="1">
                    <mxGeometry y="92" width="110" height="26" as="geometry"/>
                </mxCell>
                <mxCell id="j8qvGGo2d-hSAxMMAu1f-127" value="1..n" style="text;html=1;align=center;verticalAlign=middle;resizable=0;points=[];autosize=1;strokeColor=none;fillColor=none;" parent="WIyWlLk6GJQsqaUBKTNV-1" vertex="1">
                    <mxGeometry x="840" y="1685" width="40" height="30" as="geometry"/>
                </mxCell>
                <mxCell id="j8qvGGo2d-hSAxMMAu1f-128" value="0..n" style="text;html=1;align=center;verticalAlign=middle;resizable=0;points=[];autosize=1;strokeColor=none;fillColor=none;" parent="WIyWlLk6GJQsqaUBKTNV-1" vertex="1">
                    <mxGeometry x="1350" y="1345" width="40" height="30" as="geometry"/>
                </mxCell>
                <mxCell id="j8qvGGo2d-hSAxMMAu1f-129" value="has taken lesson of" style="text;html=1;align=center;verticalAlign=middle;resizable=0;points=[];autosize=1;strokeColor=none;fillColor=none;" parent="WIyWlLk6GJQsqaUBKTNV-1" vertex="1">
                    <mxGeometry x="990" y="1380" width="130" height="30" as="geometry"/>
                </mxCell>
                <mxCell id="j8qvGGo2d-hSAxMMAu1f-130" value="1" style="text;html=1;align=center;verticalAlign=middle;resizable=0;points=[];autosize=1;strokeColor=none;fillColor=none;" parent="WIyWlLk6GJQsqaUBKTNV-1" vertex="1">
                    <mxGeometry x="810" y="1740" width="30" height="30" as="geometry"/>
                </mxCell>
                <mxCell id="j8qvGGo2d-hSAxMMAu1f-131" value="0..n" style="text;html=1;align=center;verticalAlign=middle;resizable=0;points=[];autosize=1;strokeColor=none;fillColor=none;" parent="WIyWlLk6GJQsqaUBKTNV-1" vertex="1">
                    <mxGeometry x="700" y="1575" width="40" height="30" as="geometry"/>
                </mxCell>
                <mxCell id="j8qvGGo2d-hSAxMMAu1f-132" value="has received" style="text;html=1;align=center;verticalAlign=middle;resizable=0;points=[];autosize=1;strokeColor=none;fillColor=none;" parent="WIyWlLk6GJQsqaUBKTNV-1" vertex="1">
                    <mxGeometry x="700" y="1650" width="90" height="30" as="geometry"/>
                </mxCell>
                <mxCell id="j8qvGGo2d-hSAxMMAu1f-133" value="Geographical_Place" style="swimlane;fontStyle=2;align=center;verticalAlign=top;childLayout=stackLayout;horizontal=1;startSize=40;horizontalStack=0;resizeParent=1;resizeLast=0;collapsible=1;marginBottom=0;rounded=0;shadow=0;strokeWidth=1;" parent="WIyWlLk6GJQsqaUBKTNV-1" vertex="1">
                    <mxGeometry x="770" y="2030" width="110" height="120" as="geometry">
                        <mxRectangle x="230" y="140" width="160" height="26" as="alternateBounds"/>
                    </mxGeometry>
                </mxCell>
                <mxCell id="j8qvGGo2d-hSAxMMAu1f-134" value="name" style="text;align=left;verticalAlign=top;spacingLeft=4;spacingRight=4;overflow=hidden;rotatable=0;points=[[0,0.5],[1,0.5]];portConstraint=eastwest;" parent="j8qvGGo2d-hSAxMMAu1f-133" vertex="1">
                    <mxGeometry y="40" width="110" height="26" as="geometry"/>
                </mxCell>
                <mxCell id="j8qvGGo2d-hSAxMMAu1f-135" value="note" style="text;align=left;verticalAlign=top;spacingLeft=4;spacingRight=4;overflow=hidden;rotatable=0;points=[[0,0.5],[1,0.5]];portConstraint=eastwest;rounded=0;shadow=0;html=0;" parent="j8qvGGo2d-hSAxMMAu1f-133" vertex="1">
                    <mxGeometry y="66" width="110" height="26" as="geometry"/>
                </mxCell>
                <mxCell id="j8qvGGo2d-hSAxMMAu1f-136" value="0..n" style="text;html=1;align=center;verticalAlign=middle;resizable=0;points=[];autosize=1;strokeColor=none;fillColor=none;" parent="WIyWlLk6GJQsqaUBKTNV-1" vertex="1">
                    <mxGeometry x="1440" y="1450" width="40" height="30" as="geometry"/>
                </mxCell>
                <mxCell id="j8qvGGo2d-hSAxMMAu1f-137" value="1" style="text;html=1;align=center;verticalAlign=middle;resizable=0;points=[];autosize=1;strokeColor=none;fillColor=none;" parent="WIyWlLk6GJQsqaUBKTNV-1" vertex="1">
                    <mxGeometry x="885" y="2075" width="30" height="30" as="geometry"/>
                </mxCell>
                <mxCell id="j8qvGGo2d-hSAxMMAu1f-138" value="was located at" style="text;html=1;align=center;verticalAlign=middle;resizable=0;points=[];autosize=1;strokeColor=none;fillColor=none;" parent="WIyWlLk6GJQsqaUBKTNV-1" vertex="1">
                    <mxGeometry x="1240" y="2090" width="100" height="30" as="geometry"/>
                </mxCell>
                <mxCell id="j8qvGGo2d-hSAxMMAu1f-139" value="1" style="text;html=1;align=center;verticalAlign=middle;resizable=0;points=[];autosize=1;strokeColor=none;fillColor=none;" parent="WIyWlLk6GJQsqaUBKTNV-1" vertex="1">
                    <mxGeometry x="1200" y="1880" width="30" height="30" as="geometry"/>
                </mxCell>
                <mxCell id="j8qvGGo2d-hSAxMMAu1f-140" value="0..1" style="text;html=1;align=center;verticalAlign=middle;resizable=0;points=[];autosize=1;strokeColor=none;fillColor=none;" parent="WIyWlLk6GJQsqaUBKTNV-1" vertex="1">
                    <mxGeometry x="830" y="1980" width="40" height="30" as="geometry"/>
                </mxCell>
                <mxCell id="j8qvGGo2d-hSAxMMAu1f-141" value="was born at" style="text;html=1;align=center;verticalAlign=middle;resizable=0;points=[];autosize=1;strokeColor=none;fillColor=none;rotation=-20;" parent="WIyWlLk6GJQsqaUBKTNV-1" vertex="1">
                    <mxGeometry x="975" y="1940" width="90" height="30" as="geometry"/>
                </mxCell>
                <mxCell id="j8qvGGo2d-hSAxMMAu1f-142" value="Occupation" style="swimlane;fontStyle=2;align=center;verticalAlign=top;childLayout=stackLayout;horizontal=1;startSize=40;horizontalStack=0;resizeParent=1;resizeLast=0;collapsible=1;marginBottom=0;rounded=0;shadow=0;strokeWidth=1;" parent="WIyWlLk6GJQsqaUBKTNV-1" vertex="1">
                    <mxGeometry x="420" y="1520" width="110" height="120" as="geometry">
                        <mxRectangle x="230" y="140" width="160" height="26" as="alternateBounds"/>
                    </mxGeometry>
                </mxCell>
                <mxCell id="j8qvGGo2d-hSAxMMAu1f-143" value="name" style="text;align=left;verticalAlign=top;spacingLeft=4;spacingRight=4;overflow=hidden;rotatable=0;points=[[0,0.5],[1,0.5]];portConstraint=eastwest;" parent="j8qvGGo2d-hSAxMMAu1f-142" vertex="1">
                    <mxGeometry y="40" width="110" height="26" as="geometry"/>
                </mxCell>
                <mxCell id="j8qvGGo2d-hSAxMMAu1f-144" value="type" style="text;align=left;verticalAlign=top;spacingLeft=4;spacingRight=4;overflow=hidden;rotatable=0;points=[[0,0.5],[1,0.5]];portConstraint=eastwest;rounded=0;shadow=0;html=0;" parent="j8qvGGo2d-hSAxMMAu1f-142" vertex="1">
                    <mxGeometry y="66" width="110" height="26" as="geometry"/>
                </mxCell>
                <mxCell id="j8qvGGo2d-hSAxMMAu1f-145" value="def" style="text;align=left;verticalAlign=top;spacingLeft=4;spacingRight=4;overflow=hidden;rotatable=0;points=[[0,0.5],[1,0.5]];portConstraint=eastwest;rounded=0;shadow=0;html=0;" parent="j8qvGGo2d-hSAxMMAu1f-142" vertex="1">
                    <mxGeometry y="92" width="110" height="26" as="geometry"/>
                </mxCell>
                <mxCell id="j8qvGGo2d-hSAxMMAu1f-146" style="edgeStyle=none;html=1;exitX=1;exitY=0.5;exitDx=0;exitDy=0;" parent="WIyWlLk6GJQsqaUBKTNV-1" source="j8qvGGo2d-hSAxMMAu1f-92" edge="1">
                    <mxGeometry relative="1" as="geometry">
                        <mxPoint x="770" y="2140" as="targetPoint"/>
                    </mxGeometry>
                </mxCell>
                <mxCell id="j8qvGGo2d-hSAxMMAu1f-147" value="is located in" style="text;html=1;align=center;verticalAlign=middle;resizable=0;points=[];autosize=1;strokeColor=none;fillColor=none;rotation=10;" parent="WIyWlLk6GJQsqaUBKTNV-1" vertex="1">
                    <mxGeometry x="460" y="2040" width="90" height="30" as="geometry"/>
                </mxCell>
                <mxCell id="j8qvGGo2d-hSAxMMAu1f-148" value="0..n" style="text;html=1;align=center;verticalAlign=middle;resizable=0;points=[];autosize=1;strokeColor=none;fillColor=none;" parent="WIyWlLk6GJQsqaUBKTNV-1" vertex="1">
                    <mxGeometry x="310" y="2045" width="40" height="30" as="geometry"/>
                </mxCell>
                <mxCell id="j8qvGGo2d-hSAxMMAu1f-149" value="1" style="text;html=1;align=center;verticalAlign=middle;resizable=0;points=[];autosize=1;strokeColor=none;fillColor=none;" parent="WIyWlLk6GJQsqaUBKTNV-1" vertex="1">
                    <mxGeometry x="730" y="2140" width="30" height="30" as="geometry"/>
                </mxCell>
                <mxCell id="j8qvGGo2d-hSAxMMAu1f-150" style="edgeStyle=none;html=1;exitX=0.433;exitY=-0.031;exitDx=0;exitDy=0;entryX=0.604;entryY=1.225;entryDx=0;entryDy=0;exitPerimeter=0;entryPerimeter=0;startArrow=none;" parent="WIyWlLk6GJQsqaUBKTNV-1" source="j8qvGGo2d-hSAxMMAu1f-162" target="j8qvGGo2d-hSAxMMAu1f-145" edge="1">
                    <mxGeometry relative="1" as="geometry"/>
                </mxCell>
                <mxCell id="j8qvGGo2d-hSAxMMAu1f-151" value="Pursuit" style="swimlane;fontStyle=2;align=center;verticalAlign=top;childLayout=stackLayout;horizontal=1;startSize=40;horizontalStack=0;resizeParent=1;resizeLast=0;collapsible=1;marginBottom=0;rounded=0;shadow=0;strokeWidth=1;" parent="WIyWlLk6GJQsqaUBKTNV-1" vertex="1">
                    <mxGeometry x="480" y="1775" width="110" height="120" as="geometry">
                        <mxRectangle x="230" y="140" width="160" height="26" as="alternateBounds"/>
                    </mxGeometry>
                </mxCell>
                <mxCell id="j8qvGGo2d-hSAxMMAu1f-152" value="beggin_date" style="text;align=left;verticalAlign=top;spacingLeft=4;spacingRight=4;overflow=hidden;rotatable=0;points=[[0,0.5],[1,0.5]];portConstraint=eastwest;" parent="j8qvGGo2d-hSAxMMAu1f-151" vertex="1">
                    <mxGeometry y="40" width="110" height="26" as="geometry"/>
                </mxCell>
                <mxCell id="j8qvGGo2d-hSAxMMAu1f-153" value="end_date" style="text;align=left;verticalAlign=top;spacingLeft=4;spacingRight=4;overflow=hidden;rotatable=0;points=[[0,0.5],[1,0.5]];portConstraint=eastwest;rounded=0;shadow=0;html=0;" parent="j8qvGGo2d-hSAxMMAu1f-151" vertex="1">
                    <mxGeometry y="66" width="110" height="26" as="geometry"/>
                </mxCell>
                <mxCell id="j8qvGGo2d-hSAxMMAu1f-154" value="note" style="text;align=left;verticalAlign=top;spacingLeft=4;spacingRight=4;overflow=hidden;rotatable=0;points=[[0,0.5],[1,0.5]];portConstraint=eastwest;rounded=0;shadow=0;html=0;" parent="j8qvGGo2d-hSAxMMAu1f-151" vertex="1">
                    <mxGeometry y="92" width="110" height="26" as="geometry"/>
                </mxCell>
                <mxCell id="j8qvGGo2d-hSAxMMAu1f-155" style="edgeStyle=none;html=1;exitX=1;exitY=0.5;exitDx=0;exitDy=0;entryX=0;entryY=0.5;entryDx=0;entryDy=0;" parent="WIyWlLk6GJQsqaUBKTNV-1" source="j8qvGGo2d-hSAxMMAu1f-152" target="j8qvGGo2d-hSAxMMAu1f-98" edge="1">
                    <mxGeometry relative="1" as="geometry"/>
                </mxCell>
                <mxCell id="j8qvGGo2d-hSAxMMAu1f-156" value="0..n" style="text;html=1;align=center;verticalAlign=middle;resizable=0;points=[];autosize=1;strokeColor=none;fillColor=none;" parent="WIyWlLk6GJQsqaUBKTNV-1" vertex="1">
                    <mxGeometry x="590" y="1835" width="40" height="30" as="geometry"/>
                </mxCell>
                <mxCell id="j8qvGGo2d-hSAxMMAu1f-157" value="1&lt;br&gt;" style="text;html=1;align=center;verticalAlign=middle;resizable=0;points=[];autosize=1;strokeColor=none;fillColor=none;" parent="WIyWlLk6GJQsqaUBKTNV-1" vertex="1">
                    <mxGeometry x="805" y="1815" width="30" height="30" as="geometry"/>
                </mxCell>
                <mxCell id="j8qvGGo2d-hSAxMMAu1f-158" value="is pursuit by" style="text;html=1;align=center;verticalAlign=middle;resizable=0;points=[];autosize=1;strokeColor=none;fillColor=none;rotation=-5;" parent="WIyWlLk6GJQsqaUBKTNV-1" vertex="1">
                    <mxGeometry x="670" y="1815" width="90" height="30" as="geometry"/>
                </mxCell>
                <mxCell id="j8qvGGo2d-hSAxMMAu1f-159" value="0..n" style="text;html=1;align=center;verticalAlign=middle;resizable=0;points=[];autosize=1;strokeColor=none;fillColor=none;" parent="WIyWlLk6GJQsqaUBKTNV-1" vertex="1">
                    <mxGeometry x="485" y="1745" width="40" height="30" as="geometry"/>
                </mxCell>
                <mxCell id="j8qvGGo2d-hSAxMMAu1f-160" value="1" style="text;html=1;align=center;verticalAlign=middle;resizable=0;points=[];autosize=1;strokeColor=none;fillColor=none;" parent="WIyWlLk6GJQsqaUBKTNV-1" vertex="1">
                    <mxGeometry x="460" y="1640" width="30" height="30" as="geometry"/>
                </mxCell>
                <mxCell id="j8qvGGo2d-hSAxMMAu1f-161" value="" style="edgeStyle=none;html=1;exitX=0.553;exitY=-0.019;exitDx=0;exitDy=0;entryX=0.604;entryY=1.225;entryDx=0;entryDy=0;exitPerimeter=0;entryPerimeter=0;endArrow=none;" parent="WIyWlLk6GJQsqaUBKTNV-1" source="j8qvGGo2d-hSAxMMAu1f-151" target="j8qvGGo2d-hSAxMMAu1f-162" edge="1">
                    <mxGeometry relative="1" as="geometry">
                        <mxPoint x="540.8299999999999" y="1772.72" as="sourcePoint"/>
                        <mxPoint x="436.44000000000005" y="1643.85" as="targetPoint"/>
                    </mxGeometry>
                </mxCell>
                <mxCell id="j8qvGGo2d-hSAxMMAu1f-162" value="is pursuit of" style="text;html=1;align=center;verticalAlign=middle;resizable=0;points=[];autosize=1;strokeColor=none;fillColor=none;rotation=-15;" parent="WIyWlLk6GJQsqaUBKTNV-1" vertex="1">
                    <mxGeometry x="460" y="1700" width="80" height="30" as="geometry"/>
                </mxCell>
                <mxCell id="j8qvGGo2d-hSAxMMAu1f-163" style="edgeStyle=none;html=1;exitX=0.25;exitY=1;exitDx=0;exitDy=0;" parent="WIyWlLk6GJQsqaUBKTNV-1" source="j8qvGGo2d-hSAxMMAu1f-164" edge="1">
                    <mxGeometry relative="1" as="geometry">
                        <mxPoint x="821.25" y="2160" as="targetPoint"/>
                        <Array as="points">
                            <mxPoint x="140" y="2270"/>
                            <mxPoint x="821" y="2250"/>
                        </Array>
                    </mxGeometry>
                </mxCell>
                <mxCell id="j8qvGGo2d-hSAxMMAu1f-164" value="Projects" style="swimlane;fontStyle=2;align=center;verticalAlign=top;childLayout=stackLayout;horizontal=1;startSize=40;horizontalStack=0;resizeParent=1;resizeLast=0;collapsible=1;marginBottom=0;rounded=0;shadow=0;strokeWidth=1;" parent="WIyWlLk6GJQsqaUBKTNV-1" vertex="1">
                    <mxGeometry x="90" y="1405" width="110" height="145" as="geometry">
                        <mxRectangle x="230" y="140" width="160" height="26" as="alternateBounds"/>
                    </mxGeometry>
                </mxCell>
                <mxCell id="j8qvGGo2d-hSAxMMAu1f-165" value="name" style="text;align=left;verticalAlign=top;spacingLeft=4;spacingRight=4;overflow=hidden;rotatable=0;points=[[0,0.5],[1,0.5]];portConstraint=eastwest;rounded=0;shadow=0;html=0;" parent="j8qvGGo2d-hSAxMMAu1f-164" vertex="1">
                    <mxGeometry y="40" width="110" height="26" as="geometry"/>
                </mxCell>
                <mxCell id="j8qvGGo2d-hSAxMMAu1f-166" value="type" style="text;align=left;verticalAlign=top;spacingLeft=4;spacingRight=4;overflow=hidden;rotatable=0;points=[[0,0.5],[1,0.5]];portConstraint=eastwest;rounded=0;shadow=0;html=0;" parent="j8qvGGo2d-hSAxMMAu1f-164" vertex="1">
                    <mxGeometry y="66" width="110" height="26" as="geometry"/>
                </mxCell>
                <mxCell id="j8qvGGo2d-hSAxMMAu1f-167" value="end_date" style="text;align=left;verticalAlign=top;spacingLeft=4;spacingRight=4;overflow=hidden;rotatable=0;points=[[0,0.5],[1,0.5]];portConstraint=eastwest;" parent="j8qvGGo2d-hSAxMMAu1f-164" vertex="1">
                    <mxGeometry y="92" width="110" height="26" as="geometry"/>
                </mxCell>
                <mxCell id="j8qvGGo2d-hSAxMMAu1f-168" value="def" style="text;align=left;verticalAlign=top;spacingLeft=4;spacingRight=4;overflow=hidden;rotatable=0;points=[[0,0.5],[1,0.5]];portConstraint=eastwest;rounded=0;shadow=0;html=0;" parent="j8qvGGo2d-hSAxMMAu1f-164" vertex="1">
                    <mxGeometry y="118" width="110" height="26" as="geometry"/>
                </mxCell>
                <mxCell id="j8qvGGo2d-hSAxMMAu1f-169" style="edgeStyle=none;html=1;exitX=1;exitY=0.5;exitDx=0;exitDy=0;entryX=-0.003;entryY=0.071;entryDx=0;entryDy=0;entryPerimeter=0;" parent="WIyWlLk6GJQsqaUBKTNV-1" source="j8qvGGo2d-hSAxMMAu1f-167" target="j8qvGGo2d-hSAxMMAu1f-144" edge="1">
                    <mxGeometry relative="1" as="geometry"/>
                </mxCell>
                <mxCell id="j8qvGGo2d-hSAxMMAu1f-170" value="is composed for" style="text;html=1;align=center;verticalAlign=middle;resizable=0;points=[];autosize=1;strokeColor=none;fillColor=none;rotation=15;" parent="WIyWlLk6GJQsqaUBKTNV-1" vertex="1">
                    <mxGeometry x="260" y="1520" width="110" height="30" as="geometry"/>
                </mxCell>
                <mxCell id="j8qvGGo2d-hSAxMMAu1f-171" value="1" style="text;html=1;align=center;verticalAlign=middle;resizable=0;points=[];autosize=1;strokeColor=none;fillColor=none;" parent="WIyWlLk6GJQsqaUBKTNV-1" vertex="1">
                    <mxGeometry x="390" y="1550" width="30" height="30" as="geometry"/>
                </mxCell>
                <mxCell id="j8qvGGo2d-hSAxMMAu1f-172" value="o..n" style="text;html=1;align=center;verticalAlign=middle;resizable=0;points=[];autosize=1;strokeColor=none;fillColor=none;" parent="WIyWlLk6GJQsqaUBKTNV-1" vertex="1">
                    <mxGeometry x="200" y="1480" width="40" height="30" as="geometry"/>
                </mxCell>
                <mxCell id="j8qvGGo2d-hSAxMMAu1f-173" value="1" style="text;html=1;align=center;verticalAlign=middle;resizable=0;points=[];autosize=1;strokeColor=none;fillColor=none;" parent="WIyWlLk6GJQsqaUBKTNV-1" vertex="1">
                    <mxGeometry x="120" y="1550" width="30" height="30" as="geometry"/>
                </mxCell>
                <mxCell id="j8qvGGo2d-hSAxMMAu1f-174" value="1" style="text;html=1;align=center;verticalAlign=middle;resizable=0;points=[];autosize=1;strokeColor=none;fillColor=none;" parent="WIyWlLk6GJQsqaUBKTNV-1" vertex="1">
                    <mxGeometry x="827" y="2150" width="30" height="30" as="geometry"/>
                </mxCell>
                <mxCell id="j8qvGGo2d-hSAxMMAu1f-175" value="is built in" style="text;html=1;align=center;verticalAlign=middle;resizable=0;points=[];autosize=1;strokeColor=none;fillColor=none;" parent="WIyWlLk6GJQsqaUBKTNV-1" vertex="1">
                    <mxGeometry x="390" y="2240" width="70" height="30" as="geometry"/>
                </mxCell>
                <mxCell id="6" value="0...n" style="text;html=1;align=center;verticalAlign=middle;resizable=0;points=[];autosize=1;strokeColor=none;fillColor=none;" vertex="1" parent="WIyWlLk6GJQsqaUBKTNV-1">
                    <mxGeometry x="635" y="1425" width="50" height="30" as="geometry"/>
                </mxCell>
                <mxCell id="7" value="0...1" style="text;html=1;align=center;verticalAlign=middle;resizable=0;points=[];autosize=1;strokeColor=none;fillColor=none;" vertex="1" parent="WIyWlLk6GJQsqaUBKTNV-1">
                    <mxGeometry x="140" y="1370" width="50" height="30" as="geometry"/>
                </mxCell>
                <mxCell id="8" value="is a reward of" style="text;html=1;align=center;verticalAlign=middle;resizable=0;points=[];autosize=1;strokeColor=none;fillColor=none;rotation=-15;" vertex="1" parent="WIyWlLk6GJQsqaUBKTNV-1">
                    <mxGeometry x="300" y="1315" width="100" height="30" as="geometry"/>
                </mxCell>
            </root>
        </mxGraphModel>
    </diagram>
</mxfile>